<?xml version="1.0" encoding="UTF-8"?>
<!-- Generator: Adobe Illustrator 24.0.1, SVG Export Plug-In . SVG Version: 6.00 Build 0)  -->
<svg xmlns="http://www.w3.org/2000/svg" xmlns:xlink="http://www.w3.org/1999/xlink" version="1.1" x="0px" y="0px" viewBox="0 0 576 576" style="enable-background:new 0 0 576 576;" xml:space="preserve">
<style type="text/css">
	.st0{fill:none;stroke:#FFFFFF;stroke-width:1.0047;stroke-miterlimit:10;}
	
		.st1{fill:none;stroke:#FFFFFF;stroke-width:1.0047;stroke-linecap:round;stroke-linejoin:round;stroke-miterlimit:10;stroke-dasharray:0.01,2;}
	.st2{fill:#FFFFFF;}
</style>
<g id="Housing">
	<g>
		<circle class="st0" cx="288.41" cy="288.49" r="130.58"></circle>
		<circle class="st0" cx="288.41" cy="288.49" r="94.4"></circle>
		<circle class="st0" cx="288.41" cy="288.49" r="143.98"></circle>
		<circle class="st0" cx="288.41" cy="288.49" r="151.14"></circle>
		<path class="st0" d="M218.76,246.93c3.55,3.42,9.48,9.66,6.73,18.99l-0.21,0.68c-1.83,5.95-2.82,12.27-2.82,18.83    c0,8.68,1.73,16.95,4.86,24.49l0.21,0.51c7.63,14.68-3.95,23.76-3.95,23.76l-0.42,0.37c-3.02,2.74-4.92,6.7-4.92,11.1    c0,8.27,6.71,14.98,14.98,14.98c2.57,0,5.16-0.69,7.42-1.91c2.24-1.21,3.8-2.88,5.14-5c1.64-2.61,3.91-4.93,6.53-6.54    c3.82-2.35,8.33-2.84,12.62-1.54l0.36,0.13c6.59,2.3,13.67,3.55,21.04,3.55c10.25,0,19.93-2.41,28.52-6.7l0.34-0.17    c4.14-1.74,9.37-1.06,13.37,0.69c1.43,0.63,2.79,1.43,4.03,2.39c1.06,0.82,1.91,1.86,2.92,2.73c0.91,0.79,1.97,1.47,3.03,2.04    c2.13,1.13,4.53,1.74,6.91,1.74c8.27,0,14.98-6.71,14.98-14.98c0-4.88-2.34-9.22-5.95-11.96l-0.17-0.13    c-3.43-2.31-11.58-7.42-8.97-15.02l0.11-0.26c3.07-7.48,4.76-15.66,4.76-24.24c0-11.09-2.83-21.52-7.8-30.61l-0.12-0.22    c-1.14-2.43-1.34-5.11-0.47-7.66c0.77-2.26,2.21-4.22,3.75-6.02c2.1-2.43,4.61-4.54,6.06-7.46c1.02-2.06,1.55-4.35,1.55-6.64    c0-8.27-6.71-14.98-14.98-14.98c-4.07,0-8.02,1.69-10.83,4.63c-0.38,0.4-0.75,0.8-1.12,1.21c-1.87,2.08-3.62,4.22-5.92,5.9    c-2.72,1.99-5.99,3.24-9.4,2.65c-1.92-0.33-3.76-1.22-5.63-1.79c-2.06-0.63-4.15-1.17-6.25-1.6c-4.18-0.85-8.45-1.3-12.72-1.3    c-10.95,0-21.25,2.75-30.25,7.6l-0.42,0.23c-2.41,1.19-5.21,0.7-7.65-0.14c-2.42-0.84-4.69-2.07-6.91-3.33    c-1.08-0.61-2.17-1.21-3.22-1.87c-1.09-0.69-2.16-1.41-3.36-1.87c-1.71-0.66-3.55-1.01-5.38-1.01c-8.27,0-14.98,6.71-14.98,14.98    c0,4.11,1.65,7.83,4.33,10.53L218.76,246.93z"></path>
		<path class="st0" d="M388.96,433.47c45.85-31.86,75.87-84.92,75.87-144.98c0-97.44-78.99-176.42-176.42-176.42    s-176.42,78.99-176.42,176.42s78.99,176.42,176.42,176.42c13.43,0,26.52-1.5,39.09-4.35l-1.68-6.57c-1.2-4.26,1.27-8.69,5.53-9.89    s8.69,1.27,9.89,5.53l1.84,6.64c14.27-4.65,27.73-11.06,40.14-18.98l-0.2-0.19c-0.65-0.65-1.05-1.54-1.05-2.53    c0-1.98,1.6-3.58,3.58-3.58c1.52,0,2.82,0.95,3.34,2.29L388.96,433.47z"></path>
		<circle class="st0" cx="277.71" cy="124.85" r="8.63"></circle>
		<circle class="st0" cx="217.18" cy="141.31" r="8.63"></circle>
		<circle class="st0" cx="165.6" cy="179.59" r="8.63"></circle>
		<circle class="st0" cx="133.19" cy="234.56" r="8.63"></circle>
		<circle class="st0" cx="124.56" cy="297.11" r="8.63"></circle>
		<circle class="st0" cx="178.54" cy="410.44" r="8.63"></circle>
		<circle class="st0" cx="298.2" cy="451.82" r="8.63"></circle>
		<circle class="st0" cx="360.4" cy="435.68" r="8.63"></circle>
		<circle class="st0" cx="411.56" cy="395.8" r="8.63"></circle>
		<circle class="st0" cx="443.7" cy="339.7" r="8.63"></circle>
		<circle class="st0" cx="452.32" cy="276.21" r="8.63"></circle>
		<circle class="st0" cx="435.07" cy="214.84" r="8.63"></circle>
		<circle class="st0" cx="233.6" cy="443.19" r="8.63"></circle>
		<circle class="st0" cx="140.63" cy="359.67" r="8.63"></circle>
		<circle class="st0" cx="340.71" cy="132.68" r="8.63"></circle>
		<circle class="st0" cx="309.93" cy="125.92" r="5.45"></circle>
		<circle class="st0" cx="418.19" cy="187.37" r="5.45"></circle>
		<circle class="st0" cx="189.2" cy="157.91" r="5.45"></circle>
		<circle class="st0" cx="125.03" cy="265.84" r="5.45"></circle>
		<circle class="st0" cx="156.68" cy="387.18" r="5.45"></circle>
		<circle class="st0" cx="388.26" cy="417.92" r="5.45"></circle>
		<circle class="st0" cx="265.44" cy="450.61" r="5.45"></circle>
		<circle class="st0" cx="396.2" cy="164.12" r="8.63"></circle>
	</g>
</g>
<g id="Quibits">
	<g>
		<g>
			<circle class="st0" cx="291.83" cy="172.74" r="8.63"></circle>
			<circle class="st0" cx="291.83" cy="172.74" r="3.35"></circle>
		</g>
		<g>
			<circle class="st0" cx="268.33" cy="174.74" r="8.63"></circle>
			<circle class="st0" cx="268.33" cy="174.74" r="3.35"></circle>
		</g>
		<g>
			<circle class="st0" cx="315.83" cy="176.1" r="8.63"></circle>
			<circle class="st0" cx="315.83" cy="176.1" r="3.35"></circle>
		</g>
		<g>
			<circle class="st0" cx="338.3" cy="184.72" r="8.63"></circle>
			<circle class="st0" cx="338.3" cy="184.72" r="3.35"></circle>
		</g>
		<g>
			<circle class="st0" cx="382.18" cy="223.47" r="8.63"></circle>
			<circle class="st0" cx="382.18" cy="223.47" r="3.35"></circle>
		</g>
		<g>
			<circle class="st0" cx="399.87" cy="267.59" r="8.63"></circle>
			<circle class="st0" cx="399.87" cy="267.59" r="3.35"></circle>
		</g>
		<g>
			<circle class="st0" cx="401.09" cy="290.9" r="8.63"></circle>
			<circle class="st0" cx="401.09" cy="290.9" r="3.35"></circle>
		</g>
		<g>
			<circle class="st0" cx="397.74" cy="315.37" r="8.63"></circle>
			<circle class="st0" cx="397.74" cy="315.37" r="3.35"></circle>
		</g>
		<g>
			<circle class="st0" cx="389.11" cy="337.61" r="8.63"></circle>
			<circle class="st0" cx="389.11" cy="337.61" r="3.35"></circle>
		</g>
		<g>
			<circle class="st0" cx="349.7" cy="382.88" r="8.63"></circle>
			<circle class="st0" cx="349.7" cy="382.88" r="3.35"></circle>
		</g>
		<g>
			<circle class="st0" cx="305.25" cy="400.14" r="8.63"></circle>
			<circle class="st0" cx="305.25" cy="400.14" r="3.35"></circle>
		</g>
		<g>
			<circle class="st0" cx="281.57" cy="401.26" r="8.63"></circle>
			<circle class="st0" cx="281.57" cy="401.26" r="3.35"></circle>
		</g>
		<g>
			<circle class="st0" cx="258.03" cy="396.78" r="8.63"></circle>
			<circle class="st0" cx="258.03" cy="396.78" r="3.35"></circle>
		</g>
		<g>
			<circle class="st0" cx="235.13" cy="388.16" r="8.63"></circle>
			<circle class="st0" cx="235.13" cy="388.16" r="3.35"></circle>
		</g>
		<g>
			<circle class="st0" cx="191.95" cy="349.59" r="8.63"></circle>
			<circle class="st0" cx="191.95" cy="349.59" r="3.35"></circle>
		</g>
		<g>
			<circle class="st0" cx="174.7" cy="304.54" r="8.63"></circle>
			<circle class="st0" cx="174.7" cy="304.54" r="3.35"></circle>
		</g>
		<g>
			<circle class="st0" cx="173.19" cy="281.09" r="8.63"></circle>
			<circle class="st0" cx="173.19" cy="281.09" r="3.35"></circle>
		</g>
		<g>
			<circle class="st0" cx="177.29" cy="257.65" r="8.63"></circle>
			<circle class="st0" cx="177.29" cy="257.65" r="3.35"></circle>
		</g>
		<g>
			<circle class="st0" cx="185.91" cy="235.45" r="8.63"></circle>
			<circle class="st0" cx="185.91" cy="235.45" r="3.35"></circle>
		</g>
		<g>
			<circle class="st0" cx="224.74" cy="191.99" r="8.63"></circle>
			<circle class="st0" cx="224.74" cy="191.99" r="3.35"></circle>
		</g>
		<circle class="st0" cx="180.77" cy="328.1" r="8.63"></circle>
		<circle class="st0" cx="328.85" cy="393.43" r="8.63"></circle>
		<circle class="st0" cx="393.4" cy="244.79" r="8.63"></circle>
		<circle class="st0" cx="245.79" cy="181.37" r="8.63"></circle>
	</g>
</g>
<g id="Circuits">
	<g>
		<line class="st1" x1="356.84" y1="327.28" x2="371.57" y2="333.18"></line>
		<line class="st1" x1="359.21" y1="331.07" x2="370.09" y2="335.84"></line>
		<g>
			<path class="st1" d="M288.41,221.58l-1.11-13.84c0,0-0.87-7.2,5.88-13.53"></path>
			<path class="st1" d="M291.37,221.58l-1.11-13.84c0,0-0.28-7.32,6.47-13.65"></path>
			<path class="st1" d="M280.81,221.58l-1.49-13.43c0,0-0.51-7.24-8.34-12.17"></path>
			<path class="st1" d="M277.88,221.95l-1.47-13.24c0,0-1.11-7.24-8.94-12.18"></path>
			<line class="st1" x1="306.06" y1="195.74" x2="299.93" y2="223.03"></line>
			<line class="st1" x1="308.5" y1="196.24" x2="302.65" y2="223.68"></line>
			<line class="st1" x1="314.63" y1="197.78" x2="308.5" y2="225.57"></line>
			<line class="st1" x1="317.64" y1="198.71" x2="310.94" y2="226.24"></line>
			<line class="st1" x1="241.02" y1="206.83" x2="257.66" y2="228.33"></line>
			<line class="st1" x1="239.24" y1="207.9" x2="255.66" y2="229.38"></line>
			<line class="st1" x1="233.82" y1="211.47" x2="246.92" y2="228.83"></line>
			<line class="st1" x1="231.31" y1="213.32" x2="241.11" y2="225.91"></line>
			<line class="st1" x1="324.46" y1="201.22" x2="315.13" y2="226.08"></line>
			<line class="st1" x1="327.05" y1="202.34" x2="318.44" y2="224.79"></line>
			<line class="st1" x1="333.49" y1="205.53" x2="328.39" y2="215.5"></line>
			<line class="st1" x1="335.62" y1="206.73" x2="332.51" y2="212.97"></line>
		</g>
		<g>
			<path class="st1" d="M221.31,287.26l-13.84,1.11c0,0-7.2,0.87-13.53-5.88"></path>
			<path class="st1" d="M221.31,284.3l-13.84,1.11c0,0-7.32,0.28-13.65-6.47"></path>
			<path class="st1" d="M221.31,294.87l-13.43,1.49c0,0-7.24,0.51-12.17,8.34"></path>
			<path class="st1" d="M221.68,297.8l-13.24,1.47c0,0-7.24,1.11-12.18,8.94"></path>
			<line class="st1" x1="195.88" y1="269.71" x2="222.76" y2="275.75"></line>
			<line class="st1" x1="196.41" y1="267.27" x2="223.41" y2="273.03"></line>
			<line class="st1" x1="198.03" y1="261.16" x2="225.3" y2="267.17"></line>
			<line class="st1" x1="198.99" y1="258.17" x2="225.97" y2="264.74"></line>
			<line class="st1" x1="206.56" y1="334.65" x2="229.79" y2="316.68"></line>
			<line class="st1" x1="207.63" y1="336.44" x2="230.11" y2="319.25"></line>
			<line class="st1" x1="211.2" y1="341.85" x2="228.56" y2="328.76"></line>
			<line class="st1" x1="213.05" y1="344.36" x2="219.71" y2="339.18"></line>
			<line class="st1" x1="201.56" y1="251.45" x2="225.81" y2="260.54"></line>
			<line class="st1" x1="202.82" y1="248.63" x2="224.52" y2="257.23"></line>
			<line class="st1" x1="205.94" y1="242.53" x2="220.76" y2="248.96"></line>
			<line class="st1" x1="207.23" y1="240.37" x2="216.57" y2="244.29"></line>
		</g>
		<g>
			<path class="st1" d="M349.91,279.19l17.86-0.47c0,0,7.25-0.3,12.41-7.99"></path>
			<path class="st1" d="M349.6,276.51l17.7-0.71c0,0,7.27-0.9,12.43-8.59"></path>
			<path class="st1" d="M350.19,287.23l18.46-0.57c0,0,7.22-0.66,13.36,6.27"></path>
			<path class="st1" d="M350.19,290.56l18.38-0.94c0,0,7.33-0.07,13.46,6.86"></path>
			<line class="st1" x1="369.68" y1="240.44" x2="344.49" y2="258.96"></line>
			<line class="st1" x1="368.28" y1="238.15" x2="343.29" y2="256.47"></line>
			<line class="st1" x1="364.58" y1="232.72" x2="341.46" y2="248.35"></line>
			<line class="st1" x1="363.14" y1="230.81" x2="343.07" y2="244.31"></line>
		</g>
		<g>
			<path class="st1" d="M287.11,349.26l1.53,19.07c0,0,0.87,7.2-5.88,13.53"></path>
			<path class="st1" d="M284.15,349.26l1.53,19.07c0,0,0.28,7.32-6.47,13.65"></path>
			<path class="st1" d="M295.13,348.7l1.49,19.22c0,0,0.51,7.24,8.34,12.17"></path>
			<path class="st1" d="M298.05,348.23l1.47,19.13c0,0,1.11,7.24,8.94,12.18"></path>
			<line class="st1" x1="269.88" y1="380.34" x2="276.01" y2="348.47"></line>
			<line class="st1" x1="267.43" y1="379.84" x2="273.47" y2="347.89"></line>
			<line class="st1" x1="261.31" y1="378.29" x2="267.43" y2="346.46"></line>
			<line class="st1" x1="258.29" y1="377.37" x2="265.29" y2="345.75"></line>
			<line class="st1" x1="334.91" y1="369.25" x2="314.86" y2="342.6"></line>
			<line class="st1" x1="336.7" y1="368.18" x2="317.45" y2="341.73"></line>
			<line class="st1" x1="342.11" y1="364.61" x2="325.32" y2="342.35"></line>
			<line class="st1" x1="344.62" y1="362.76" x2="331.18" y2="344.52"></line>
			<line class="st1" x1="251.48" y1="374.86" x2="262.12" y2="345.04"></line>
			<line class="st1" x1="248.89" y1="373.74" x2="259.25" y2="344.95"></line>
			<line class="st1" x1="242.44" y1="370.54" x2="251.73" y2="347.55"></line>
			<line class="st1" x1="240.31" y1="369.35" x2="246.6" y2="352.52"></line>
		</g>
		<line class="st1" x1="348.99" y1="297.92" x2="381.27" y2="305.53"></line>
		<line class="st1" x1="348.35" y1="300.8" x2="380.72" y2="308.34"></line>
		<line class="st1" x1="346.45" y1="307.07" x2="379.09" y2="314.81"></line>
		<line class="st1" x1="345.45" y1="309.67" x2="378.43" y2="316.97"></line>
		<line class="st1" x1="344.88" y1="312.01" x2="375.62" y2="324.67"></line>
		<line class="st1" x1="345.23" y1="315.37" x2="374.49" y2="327.28"></line>
	</g>
</g>
<g id="Vent_Holes">
	<g>
		<g>
			<circle class="st2" cx="206.73" cy="257.15" r="0.5"></circle>
			<g>
				<circle class="st2" cx="200.45" cy="274.18" r="0.5"></circle>
				<circle class="st2" cx="200.45" cy="279.49" r="0.5"></circle>
				<circle class="st2" cx="205.72" cy="278.48" r="0.5"></circle>
				<g>
					<circle class="st2" cx="196.99" cy="292.71" r="0.5"></circle>
					<circle class="st2" cx="205.22" cy="305.19" r="0.5"></circle>
					<circle class="st2" cx="202.47" cy="313.16" r="0.5"></circle>
					<circle class="st2" cx="207.07" cy="316.89" r="0.5"></circle>
					<circle class="st2" cx="208.74" cy="311.65" r="0.5"></circle>
					<circle class="st2" cx="212.7" cy="306.87" r="0.5"></circle>
					<circle class="st2" cx="216.57" cy="301.18" r="0.5"></circle>
					<circle class="st2" cx="218.54" cy="307.37" r="0.5"></circle>
					<circle class="st2" cx="223.58" cy="304.68" r="0.5"></circle>
					<circle class="st2" cx="223.07" cy="311.65" r="0.5"></circle>
					<circle class="st2" cx="214.16" cy="314.81" r="0.5"></circle>
					<circle class="st2" cx="214.66" cy="321.45" r="0.5"></circle>
					<circle class="st2" cx="221.4" cy="317.39" r="0.5"></circle>
					<circle class="st2" cx="207.07" cy="324.84" r="0.5"></circle>
				</g>
				<circle class="st2" cx="211.21" cy="276.56" r="0.5"></circle>
				<circle class="st2" cx="210.21" cy="282.02" r="0.5"></circle>
				<circle class="st2" cx="216.07" cy="279.99" r="0.5"></circle>
				<circle class="st2" cx="220.89" cy="279.99" r="0.5"></circle>
			</g>
			<circle class="st2" cx="212.35" cy="258.52" r="0.5"></circle>
		</g>
		<g>
			<circle class="st2" cx="368.84" cy="317.84" r="0.5"></circle>
			<g>
				<circle class="st2" cx="375.12" cy="300.8" r="0.5"></circle>
				<circle class="st2" cx="375.12" cy="295.5" r="0.5"></circle>
				<circle class="st2" cx="369.84" cy="296.51" r="0.5"></circle>
				<g>
					<circle class="st2" cx="378.58" cy="282.27" r="0.5"></circle>
					<circle class="st2" cx="370.35" cy="269.8" r="0.5"></circle>
					<circle class="st2" cx="373.09" cy="261.82" r="0.5"></circle>
					<circle class="st2" cx="368.49" cy="258.09" r="0.5"></circle>
					<circle class="st2" cx="366.83" cy="263.33" r="0.5"></circle>
					<circle class="st2" cx="362.86" cy="268.12" r="0.5"></circle>
					<circle class="st2" cx="358.99" cy="273.8" r="0.5"></circle>
					<circle class="st2" cx="357.02" cy="267.61" r="0.5"></circle>
					<circle class="st2" cx="351.99" cy="270.3" r="0.5"></circle>
					<circle class="st2" cx="352.49" cy="263.33" r="0.5"></circle>
					<circle class="st2" cx="361.41" cy="260.18" r="0.5"></circle>
					<circle class="st2" cx="360.9" cy="253.54" r="0.5"></circle>
					<circle class="st2" cx="354.17" cy="257.59" r="0.5"></circle>
					<circle class="st2" cx="368.49" cy="250.15" r="0.5"></circle>
					<circle class="st2" cx="357.09" cy="227.53" r="0.5"></circle>
					<circle class="st2" cx="354.34" cy="233.72" r="0.5"></circle>
				</g>
				<circle class="st2" cx="364.35" cy="298.42" r="0.5"></circle>
				<circle class="st2" cx="365.36" cy="292.96" r="0.5"></circle>
				<circle class="st2" cx="359.5" cy="295" r="0.5"></circle>
				<circle class="st2" cx="354.67" cy="295" r="0.5"></circle>
			</g>
			<circle class="st2" cx="363.21" cy="316.47" r="0.5"></circle>
		</g>
		<g>
			<circle class="st2" cx="296.35" cy="200.12" r="0.5"></circle>
			<circle class="st2" cx="282.34" cy="197.04" r="0.5"></circle>
			<circle class="st2" cx="297.24" cy="205.53" r="0.5"></circle>
			<circle class="st2" cx="293.19" cy="209.96" r="0.5"></circle>
			<circle class="st2" cx="268.6" cy="212.47" r="0.5"></circle>
			<circle class="st2" cx="267.83" cy="218.7" r="0.5"></circle>
			<circle class="st2" cx="273.86" cy="216.85" r="0.5"></circle>
			<circle class="st2" cx="269.94" cy="205.03" r="0.5"></circle>
			<circle class="st2" cx="262.54" cy="202.84" r="0.5"></circle>
			<circle class="st2" cx="263.94" cy="209.24" r="0.5"></circle>
			<circle class="st2" cx="258.67" cy="207.84" r="0.5"></circle>
			<circle class="st2" cx="260.54" cy="214.5" r="0.5"></circle>
			<circle class="st2" cx="254.41" cy="215" r="0.5"></circle>
			<circle class="st2" cx="228.17" cy="218.19" r="0.5"></circle>
			<circle class="st2" cx="251.02" cy="207.33" r="0.5"></circle>
			<circle class="st2" cx="258.16" cy="221.58" r="0.5"></circle>
			<circle class="st2" cx="263.94" cy="223.18" r="0.5"></circle>
			<circle class="st2" cx="298.94" cy="210.97" r="0.5"></circle>
			<circle class="st2" cx="301.57" cy="200.62" r="0.5"></circle>
			<circle class="st2" cx="318.95" cy="206.23" r="0.5"></circle>
			<circle class="st2" cx="317.14" cy="212.47" r="0.5"></circle>
			<circle class="st2" cx="295.85" cy="215.85" r="0.5"></circle>
		</g>
		<g>
			<circle class="st2" cx="279.11" cy="375.68" r="0.5"></circle>
			<circle class="st2" cx="293.12" cy="378.76" r="0.5"></circle>
			<circle class="st2" cx="278.22" cy="370.26" r="0.5"></circle>
			<circle class="st2" cx="282.27" cy="365.84" r="0.5"></circle>
			<circle class="st2" cx="306.86" cy="363.33" r="0.5"></circle>
			<circle class="st2" cx="307.63" cy="357.1" r="0.5"></circle>
			<circle class="st2" cx="301.6" cy="358.94" r="0.5"></circle>
			<circle class="st2" cx="305.52" cy="370.77" r="0.5"></circle>
			<circle class="st2" cx="312.93" cy="372.96" r="0.5"></circle>
			<circle class="st2" cx="311.52" cy="366.55" r="0.5"></circle>
			<circle class="st2" cx="316.79" cy="367.96" r="0.5"></circle>
			<circle class="st2" cx="314.93" cy="361.3" r="0.5"></circle>
			<circle class="st2" cx="321.05" cy="360.8" r="0.5"></circle>
			<circle class="st2" cx="324.44" cy="368.46" r="0.5"></circle>
			<circle class="st2" cx="341.07" cy="354.21" r="0.5"></circle>
			<circle class="st2" cx="347.6" cy="357.1" r="0.5"></circle>
			<circle class="st2" cx="317.3" cy="354.21" r="0.5"></circle>
			<circle class="st2" cx="311.52" cy="352.62" r="0.5"></circle>
			<circle class="st2" cx="312.89" cy="346.74" r="0.5"></circle>
			<circle class="st2" cx="305.14" cy="351.61" r="0.5"></circle>
			<circle class="st2" cx="276.52" cy="364.83" r="0.5"></circle>
			<circle class="st2" cx="273.89" cy="375.18" r="0.5"></circle>
			<circle class="st2" cx="256.52" cy="369.57" r="0.5"></circle>
			<circle class="st2" cx="258.32" cy="363.33" r="0.5"></circle>
			<circle class="st2" cx="279.61" cy="359.95" r="0.5"></circle>
			<circle class="st2" cx="280.11" cy="353.98" r="0.5"></circle>
		</g>
	</g>
</g>
<g id="Screw_Circles">
	<g>
		<circle class="st0" cx="201.6" cy="210.47" r="8.63"></circle>
		<circle class="st0" cx="362.58" cy="200.62" r="8.63"></circle>
		<g>
			<circle class="st0" cx="338.3" cy="226.82" r="8.63"></circle>
			<circle class="st0" cx="345.33" cy="337.61" r="8.63"></circle>
			<circle class="st0" cx="233.37" cy="346.23" r="8.63"></circle>
			<circle class="st0" cx="229.39" cy="235.82" r="8.63"></circle>
			<circle class="st0" cx="372.78" cy="361.83" r="8.63"></circle>
			<circle class="st0" cx="210.71" cy="371.74" r="8.63"></circle>
			<g>
				<circle class="st0" cx="330.48" cy="323.99" r="4.18"></circle>
				<circle class="st0" cx="241.44" cy="323.99" r="4.18"></circle>
				<circle class="st0" cx="330.48" cy="246.93" r="4.18"></circle>
				<circle class="st0" cx="248.31" cy="240.6" r="4.18"></circle>
			</g>
		</g>
	</g>
</g>
<g id="Screw_Hex_Top">
	<polygon class="st2" points="205.96,214.24 207.05,208.58 202.69,204.81 197.24,206.7 196.16,212.36 200.52,216.13  "></polygon>
	<polygon class="st2" points="366.94,204.39 368.03,198.73 363.67,194.96 358.22,196.85 357.13,202.51 361.49,206.28  "></polygon>
	<polygon class="st2" points="342.66,230.59 343.75,224.93 339.39,221.16 333.94,223.05 332.85,228.71 337.21,232.48  "></polygon>
	<polygon class="st2" points="350.89,339.13 349.42,333.55 343.86,332.03 339.77,336.09 341.23,341.66 346.79,343.18  "></polygon>
	<polygon class="st2" points="235.29,351.67 239.04,347.29 237.12,341.85 231.45,340.8 227.7,345.18 229.62,350.62  "></polygon>
	<polygon class="st2" points="231.31,241.26 235.06,236.87 233.14,231.44 227.47,230.38 223.72,234.76 225.64,240.2  "></polygon>
	<polygon class="st2" points="375.83,366.72 378.54,361.62 375.48,356.74 369.72,356.94 367.01,362.03 370.07,366.92  "></polygon>
	<polygon class="st2" points="216.43,372.42 214.16,367.12 208.44,366.44 204.98,371.05 207.26,376.35 212.98,377.04  "></polygon>
</g>
<g id="Logo">
	<g>
		<g>
			<g>
				<path class="st0" d="M288.67,254.3c-4.16,0-7.54,3.37-7.54,7.54v4.81l0,0l0,0c0,4.16-3.38,7.54-7.54,7.54l0,0l0,0h-5.07      c-4.16,0-7.54,3.38-7.54,7.54v36.64h12.61c4.16,0,7.54-3.37,7.54-7.54v-29.1v0c0-4.16,3.37-7.54,7.54-7.54l0,0l0,0h15.49      c4.16,0,7.54-3.38,7.54-7.54V254.3H288.67z"></path>
			</g>
		</g>
		<path class="st0" d="M311.69,303.3v7.54c0,4.16-3.37,7.53-7.53,7.53h-7.53V303.3H311.69z"></path>
	</g>
</g>
</svg>
